<svg width="182" height="44" viewBox="0 0 182 44" fill="none" xmlns="http://www.w3.org/2000/svg">
<path d="M50.1702 30.8311C50.0858 30.8311 50.0086 30.8241 49.9277 30.8205C49.1792 31.6596 48.4234 32.5268 47.4041 33.1037C41.1758 36.6073 32.7402 33.8835 29.6894 27.5967C26.3432 20.7016 30.0479 12.1422 37.4501 9.8868C40.7822 8.87275 44.4833 9.24694 47.5236 10.9427C48.6026 11.5442 49.3618 12.3832 50.1387 13.2119L60.5566 13.212C60.6444 13.0477 60.7006 12.9008 60.7042 12.803C60.7183 12.5687 59.3581 10.2226 59.1506 10.1001C58.3141 9.60008 58.4512 9.8134 57.2948 10.1665C55.8256 10.6141 55.0559 11.289 53.7765 10.5162C51.5446 9.16645 52.9856 7.79589 53.3336 5.87282C53.5304 4.78887 53.8045 5.12107 53.3723 4.32384C53.2634 4.12109 50.8872 2.76787 50.6553 2.77136C49.2704 2.7923 48.9892 4.47064 47.9207 5.20494C47.0842 5.77838 45.1897 6.27133 44.2759 5.20494C43.2635 4.02665 44.2196 1.60354 42.9262 0.690926C42.2338 0.204845 39.6398 0.544024 39.109 1.16305C38.2162 2.20152 39.074 4.2294 37.9773 5.29939C36.7963 6.44976 35.2921 5.89377 34.4027 4.95323C32.951 3.4218 32.958 2.29586 31.0109 3.28187C28.6875 4.45678 28.7333 4.58602 29.5241 6.93922C29.9811 8.29931 30.301 10.2085 28.424 10.8449C27.3098 11.2225 21.8654 11.0443 21.6369 11.0267C20.0202 10.8973 20.6141 11.0616 19.6791 9.92878C18.4208 8.40084 16.6668 6.93922 14.5053 7.21547C12.2032 7.50917 10.1926 9.63508 9.86572 11.8588C9.22953 16.1944 14.0589 19.4322 17.876 17.142C19.0604 16.4323 20.5753 14.226 20.5753 14.226L24.997 14.4708L24.3081 19.0757C19.9251 19.4987 15.542 19.9218 11.1592 20.3413C10.2348 17.9778 7.80256 16.551 5.32806 16.8868C2.74809 17.2365 0.997813 19.4324 0.688541 21.5302C0.0523468 25.8658 4.88174 29.1036 8.6988 26.8134C9.8973 26.0931 11.3982 23.8974 11.3982 23.8974L24.3012 25.1176L25.2114 29.2785L19.6756 28.5721C19.6756 28.5721 18.8461 26.8659 17.7319 26.2015C16.456 25.4427 14.9798 25.7575 14.5053 25.8623C12.3507 26.3238 10.1997 28.2469 9.86572 30.5057C9.22953 34.8413 14.0589 38.0791 17.876 35.7889C19.0745 35.0685 20.5753 32.8728 20.5753 32.8728C20.5753 32.8728 26.7263 32.8484 28.0478 33.219C29.7526 33.6981 30.0337 35.2225 29.7702 36.5442C29.3695 38.5617 28.055 39.1596 30.0373 40.3764C31.5627 41.3134 31.8299 41.8169 33.141 40.6771C34.3079 39.6666 34.575 38.2471 36.336 38.3378C38.8351 38.4672 38.3114 40.3343 38.9474 42.1142C39.0564 42.4218 38.9791 43.1875 39.2919 43.4009C39.6715 43.663 42.4307 43.7365 42.8032 43.5128C44.2865 42.6351 43.1827 40.1246 44.3286 38.9498C45.6431 37.5967 47.0562 38.289 48.0544 39.1631C50.1704 41.0198 49.7732 42.0757 52.5358 40.3274C54.947 38.8029 52.1983 37.8694 52.4373 35.621C52.5181 34.8623 53.6218 33.3832 54.4091 33.149C55.9555 32.6839 57.6778 35.0861 59.1435 34.1071C60.0082 33.5265 60.8341 31.8448 60.4334 30.8238L50.1704 30.824V30.831L50.1702 30.8311ZM15.1203 14.7472C12.3682 14.8171 12.4033 10.4639 15.1238 10.5164C17.8196 10.5687 17.8126 14.6772 15.1203 14.7472ZM5.9466 24.422C3.19451 24.4919 3.22959 20.1388 5.95011 20.1913C8.64245 20.2436 8.63543 24.352 5.9466 24.422ZM15.1203 33.394C12.3682 33.4639 12.4033 29.1109 15.1238 29.1633C17.8196 29.2158 17.8126 33.3276 15.1203 33.394Z" fill="#4285F4"/>
<path d="M76.7248 32.1599C75.8461 32.1599 75.0939 32.4676 74.4718 33.0865C73.8461 33.7089 73.5332 34.4605 73.5332 35.3383C73.5332 36.2194 73.8461 36.9676 74.4682 37.5864C75.0903 38.2053 75.846 38.5165 76.7281 38.5165C77.526 38.5165 78.2185 38.2613 78.8019 37.7543L79.8107 38.7577C78.946 39.5375 77.9161 39.9291 76.7246 39.9291C75.4487 39.9291 74.3591 39.4815 73.4594 38.5863C72.5596 37.6912 72.1097 36.6073 72.1097 35.338C72.1097 34.0688 72.5596 32.9848 73.4629 32.0863C74.3626 31.1912 75.4487 30.7437 76.7211 30.7437H76.7282C78.0041 30.7437 79.0938 31.1912 79.997 32.0863C80.0568 32.1457 80.113 32.2052 80.1693 32.2681L79.164 33.2681C79.1078 33.2051 79.0516 33.1457 78.9918 33.0863C78.3661 32.4674 77.6106 32.1597 76.7282 32.1597L76.7248 32.1598V32.1599Z" fill="#4285F4"/>
<path d="M92.0917 38.1634L91.4484 39.5759H89.8492L94.1093 30.3906L98.3694 39.5759H96.77L96.1268 38.1634H92.0918H92.0917ZM95.4835 36.7508L94.1126 33.7473L92.7418 36.7508H95.4833H95.4835Z" fill="#4285F4"/>
<path d="M110.084 37.457V39.5759L108.664 39.5758V31.0967L111.859 31.0968C112.741 31.0968 113.497 31.408 114.119 32.0269C114.741 32.6457 115.054 33.3975 115.054 34.2751C115.054 35.1562 114.741 35.9046 114.119 36.5234C113.497 37.1422 112.741 37.4535 111.859 37.4535H110.084V37.457H110.084ZM110.084 32.5128V36.0443H111.859C112.351 36.0443 112.769 35.873 113.117 35.5268C113.462 35.1842 113.637 34.7646 113.637 34.2751C113.637 33.7857 113.465 33.3696 113.117 33.0234C112.769 32.6808 112.351 32.506 111.859 32.506L110.084 32.5058V32.5128Z" fill="#4285F4"/>
<path d="M128.393 34.5271L128.702 34.6915C129.156 34.9327 129.563 35.1915 129.918 35.4607C130.273 35.7299 130.548 36.0376 130.741 36.3802C130.899 36.6669 130.98 36.992 130.98 37.3557C130.98 37.4326 130.976 37.5131 130.969 37.5935C130.92 38.111 130.741 38.5515 130.428 38.9117C130.115 39.2718 129.711 39.5376 129.208 39.7054C128.832 39.8348 128.424 39.8978 127.989 39.8978C127.848 39.8978 127.704 39.8908 127.556 39.8769C126.825 39.8141 126.207 39.6041 125.704 39.2475C125.507 39.1112 125.335 38.9608 125.188 38.7965L126.052 37.6428C126.193 37.8211 126.361 37.9714 126.558 38.1007C126.892 38.3174 127.272 38.4469 127.701 38.4853C127.796 38.4922 127.89 38.4958 127.978 38.4958C128.358 38.4958 128.709 38.4119 129.033 38.244C129.356 38.0762 129.532 37.8244 129.56 37.4888C129.563 37.4609 129.567 37.4329 129.567 37.4048C129.567 37.23 129.511 37.0586 129.402 36.8944C129.293 36.73 129.138 36.5692 128.934 36.4083C128.734 36.2475 128.509 36.0971 128.259 35.9538C128.038 35.8244 127.817 35.7019 127.595 35.5832L127.507 35.5272C127.251 35.3944 127.001 35.2511 126.755 35.0936C126.509 34.9362 126.287 34.7579 126.091 34.5586C125.894 34.3593 125.743 34.1286 125.637 33.8664C125.55 33.6637 125.504 33.4328 125.504 33.1776C125.504 33.1077 125.507 33.0378 125.514 32.9608C125.56 32.4783 125.725 32.0657 126.013 31.7195C126.302 31.3733 126.674 31.1146 127.128 30.9467C127.479 30.8137 127.855 30.7473 128.259 30.7473C128.372 30.7473 128.484 30.7543 128.604 30.7648C129.24 30.8207 129.771 31.006 130.196 31.3277C130.326 31.4257 130.442 31.5341 130.547 31.6494L129.714 32.7647C129.616 32.6424 129.5 32.5374 129.377 32.4431C129.113 32.2577 128.822 32.1529 128.495 32.1214C128.428 32.1144 128.365 32.1108 128.301 32.1108C127.974 32.1108 127.672 32.2018 127.391 32.3801C127.11 32.5584 126.955 32.8031 126.924 33.1178C126.92 33.1423 126.917 33.1702 126.917 33.2017C126.917 33.3696 126.973 33.5269 127.082 33.6669C127.194 33.8067 127.359 33.943 127.577 34.076C127.799 34.2088 128.052 34.3487 128.34 34.4955L128.393 34.5268L128.393 34.5271Z" fill="#4285F4"/>
<path d="M141.623 36.7507V31.0969H143.043V36.7507C143.043 37.2402 143.215 37.6563 143.563 38.0024C143.907 38.3451 144.329 38.5199 144.821 38.5199C145.313 38.5199 145.731 38.3486 146.079 38.0024C146.424 37.6597 146.6 37.2402 146.6 36.7507V31.0969H148.02V36.7507C148.02 37.6318 147.707 38.3801 147.085 38.9989C146.463 39.6177 145.707 39.929 144.825 39.929C143.939 39.929 143.187 39.6177 142.565 38.9989C141.942 38.3801 141.623 37.6318 141.623 36.7507H141.623Z" fill="#4285F4"/>
<path d="M159.601 31.1003H161.021V38.1668L164.571 38.1669V39.5795H159.598L159.601 31.1003Z" fill="#4285F4"/>
<path d="M180.289 31.1004V32.513H176.739V34.6319H179.579V36.0445H176.739V38.1634H180.289V39.5759H175.316V31.0969L180.289 31.097V31.1004Z" fill="#4285F4"/>
<path d="M77.614 7.72268C75.4068 7.72268 73.5229 8.49887 71.9622 10.0479C70.3947 11.6073 69.6107 13.492 69.6107 15.6983C69.6107 17.9046 70.391 19.7856 71.9552 21.3416C73.5193 22.8976 75.4103 23.6739 77.6282 23.6739C79.6316 23.6739 81.368 23.0375 82.8336 21.7649L85.3679 24.2859C83.1957 26.244 80.6158 27.2195 77.6282 27.2195C74.4262 27.2195 71.6951 26.0971 69.4386 23.8489C67.1786 21.6007 66.0503 18.8839 66.0503 15.702C66.0503 12.5201 67.182 9.79995 69.4456 7.54818C71.6986 5.30688 74.4226 4.18453 77.614 4.18453L77.6281 4.18433C80.8301 4.18433 83.5611 5.30677 85.8247 7.54796C85.9724 7.69487 86.1164 7.84865 86.257 8.00592L83.7368 10.5129C83.5962 10.3555 83.4521 10.2052 83.3045 10.0549C81.737 8.50246 79.8423 7.72977 77.6245 7.72977H77.6139V7.72279L77.614 7.72268Z" fill="black"/>
<path d="M97.1002 27.2158C93.8982 27.2158 91.1672 26.0933 88.9106 23.8451C86.6507 21.5969 85.5223 18.8801 85.5223 15.6982C85.5223 12.5164 86.6507 9.79957 88.9106 7.55129C91.1707 5.30301 93.9017 4.18066 97.1002 4.18066C100.299 4.18066 103.03 5.30301 105.29 7.55129C107.55 9.79957 108.678 12.5163 108.678 15.6982C108.678 18.8801 107.55 21.6004 105.29 23.8451C103.03 26.0933 100.302 27.2158 97.1002 27.2158ZM97.1002 23.6737C99.3181 23.6737 101.209 22.8975 102.773 21.3414C104.337 19.7855 105.118 17.9044 105.118 15.698C105.118 13.4917 104.337 11.6106 102.773 10.0547C101.209 8.4987 99.3182 7.72241 97.1002 7.72241C94.8824 7.72241 92.9914 8.49859 91.4273 10.0547C89.8632 11.6106 89.0828 13.4917 89.0828 15.698C89.0828 17.9043 89.8631 19.7855 91.4273 21.3414C92.9914 22.8939 94.8824 23.6737 97.1002 23.6737Z" fill="black"/>
<path d="M111.504 5.06519H120.411C123.36 5.06519 125.88 6.10366 127.968 8.1806C130.055 10.2576 131.099 12.7645 131.099 15.6981C131.099 18.6318 130.055 21.1386 127.968 23.2157C125.88 25.2926 123.36 26.3311 120.411 26.3311L111.504 26.331V5.06519ZM115.068 8.61063V22.789H120.414C122.382 22.789 124.059 22.0968 125.451 20.7122C126.843 19.3276 127.539 17.6562 127.539 15.7017C127.539 13.7437 126.843 12.0759 125.451 10.6912C124.059 9.30655 122.379 8.61434 120.414 8.61434L115.068 8.61423V8.61074V8.61063Z" fill="black"/>
<path d="M146.396 5.06519V8.61063H137.489V13.9289H144.614V17.4743H137.489V22.7925H146.396V26.338H133.925V5.07217H146.396V5.06519Z" fill="black"/>
<path d="M155.707 21.0128H153.035V26.331H149.471V5.06519H157.489C159.707 5.06519 161.598 5.84137 163.162 7.39744C164.726 8.95341 165.506 10.8345 165.506 13.0409C165.506 15.2472 164.726 17.1249 163.169 18.6773C162.185 19.6563 161.077 20.3311 159.844 20.6983L165.51 26.3348L161.053 26.3347L155.707 21.013V21.0128ZM153.035 8.61063V17.4708H157.489C158.722 17.4708 159.773 17.0408 160.642 16.1771C161.51 15.3135 161.942 14.2681 161.942 13.0408C161.942 11.8135 161.51 10.7681 160.642 9.90442C159.773 9.04077 158.722 8.61074 157.489 8.61074L153.035 8.61063Z" fill="black"/>
<path d="M174.884 13.6633L175.664 14.0793C176.806 14.6877 177.822 15.331 178.711 16.0095C179.6 16.6877 180.289 17.457 180.771 18.3136C181.168 19.034 181.368 19.852 181.368 20.7646C181.368 20.957 181.358 21.1564 181.34 21.359C181.221 22.6597 180.767 23.7647 179.984 24.6667C179.2 25.5722 178.18 26.2366 176.929 26.6597C175.984 26.9813 174.961 27.1458 173.868 27.1458C173.516 27.1458 173.154 27.1282 172.782 27.0898C170.943 26.9324 169.393 26.408 168.131 25.5128C167.639 25.1702 167.207 24.7925 166.838 24.3765L169.01 21.4814C169.362 21.9254 169.783 22.3065 170.275 22.6318C171.112 23.1773 172.065 23.4989 173.144 23.6003C173.386 23.6179 173.618 23.6282 173.84 23.6282C174.796 23.6282 175.678 23.4185 176.483 22.9989C177.291 22.5793 177.731 21.9499 177.804 21.1108C177.815 21.0374 177.818 20.9675 177.818 20.9046C177.818 20.4606 177.681 20.0339 177.407 19.6248C177.133 19.2158 176.743 18.8067 176.237 18.4081C175.731 18.006 175.168 17.6248 174.546 17.2647C173.991 16.943 173.432 16.6318 172.877 16.3381L172.655 16.1983C172.015 15.8661 171.386 15.5025 170.768 15.1108C170.149 14.7192 169.597 14.2717 169.105 13.7681C168.613 13.2647 168.233 12.6876 167.963 12.0303C167.741 11.5233 167.629 10.9465 167.629 10.2995C167.629 10.1247 167.64 9.94289 167.657 9.76109C167.769 8.55128 168.184 7.51291 168.908 6.64567C169.632 5.77853 170.564 5.13169 171.706 4.70853C172.588 4.37634 173.534 4.2085 174.546 4.2085C174.823 4.2085 175.112 4.22246 175.411 4.25038C177.006 4.3903 178.338 4.85882 179.403 5.66293C179.727 5.91115 180.018 6.18042 180.282 6.46714L178.194 9.26433C177.945 8.96016 177.66 8.69089 177.344 8.46011C176.687 7.99857 175.948 7.73279 175.13 7.6559C174.964 7.63835 174.799 7.62798 174.641 7.62798C173.825 7.62798 173.063 7.85167 172.36 8.29925C171.653 8.74673 171.263 9.36216 171.189 10.1489C171.179 10.2153 171.175 10.2818 171.175 10.3552C171.175 10.7782 171.316 11.1663 171.594 11.5195C171.871 11.8691 172.286 12.2118 172.838 12.544C173.39 12.8762 174.029 13.2258 174.75 13.5964L174.883 13.6632L174.884 13.6633Z" fill="black"/>
</svg>
