<svg width="164" height="64" viewBox="0 0 164 64" fill="none" xmlns="http://www.w3.org/2000/svg">
<g clip-path="url(#clip0_3_2)">
<path d="M30.5973 10.4C33.4692 10.4 35.7973 8.07188 35.7973 5.2C35.7973 2.32812 33.4692 0 30.5973 0C27.7255 0 25.3973 2.32812 25.3973 5.2C25.3973 8.07188 27.7255 10.4 30.5973 10.4Z" fill="#4285F4"/>
<path d="M56.0973 10.4C58.9692 10.4 61.2973 8.07188 61.2973 5.2C61.2973 2.32812 58.9692 0 56.0973 0C53.2255 0 50.8973 2.32812 50.8973 5.2C50.8973 8.07188 53.2255 10.4 56.0973 10.4Z" fill="#4285F4"/>
<path d="M81.5973 10.4C84.4692 10.4 86.7973 8.07188 86.7973 5.2C86.7973 2.32812 84.4692 0 81.5973 0C78.7255 0 76.3973 2.32812 76.3973 5.2C76.3973 8.07188 78.7255 10.4 81.5973 10.4Z" fill="#4285F4"/>
<path d="M5.19731 36.7001C8.06919 36.7001 10.3973 34.3719 10.3973 31.5C10.3973 28.6282 8.06919 26.3 5.19731 26.3C2.32543 26.3 -0.00268555 28.6282 -0.00268555 31.5C-0.00268555 34.3719 2.32543 36.7001 5.19731 36.7001Z" fill="#4285F4"/>
<path d="M30.5973 36.7001C33.4692 36.7001 35.7973 34.3719 35.7973 31.5C35.7973 28.6282 33.4692 26.3 30.5973 26.3C27.7255 26.3 25.3973 28.6282 25.3973 31.5C25.3973 34.3719 27.7255 36.7001 30.5973 36.7001Z" fill="#4285F4"/>
<path d="M56.0973 36.7001C58.9692 36.7001 61.2973 34.3719 61.2973 31.5C61.2973 28.6282 58.9692 26.3 56.0973 26.3C53.2255 26.3 50.8973 28.6282 50.8973 31.5C50.8973 34.3719 53.2255 36.7001 56.0973 36.7001Z" fill="#4285F4"/>
<path d="M81.5973 36.7001C84.4692 36.7001 86.7973 34.3719 86.7973 31.5C86.7973 28.6282 84.4692 26.3 81.5973 26.3C78.7255 26.3 76.3973 28.6282 76.3973 31.5C76.3973 34.3719 78.7255 36.7001 81.5973 36.7001Z" fill="#4285F4"/>
<path d="M107.097 36.7001C109.969 36.7001 112.297 34.3719 112.297 31.5C112.297 28.6282 109.969 26.3 107.097 26.3C104.225 26.3 101.897 28.6282 101.897 31.5C101.897 34.3719 104.225 36.7001 107.097 36.7001Z" fill="#4285F4"/>
<path d="M56.0973 63.0999C58.9692 63.0999 61.2973 60.7718 61.2973 57.9C61.2973 55.0281 58.9692 52.7 56.0973 52.7C53.2255 52.7 50.8973 55.0281 50.8973 57.9C50.8973 60.7718 53.2255 63.0999 56.0973 63.0999Z" fill="#4285F4"/>
<path d="M81.5973 63.0999C84.4692 63.0999 86.7973 60.7718 86.7973 57.9C86.7973 55.0281 84.4692 52.7 81.5973 52.7C78.7255 52.7 76.3973 55.0281 76.3973 57.9C76.3973 60.7718 78.7255 63.0999 81.5973 63.0999Z" fill="#4285F4"/>
<path d="M107.097 63.0999C109.969 63.0999 112.297 60.7718 112.297 57.9C112.297 55.0281 109.969 52.7 107.097 52.7C104.225 52.7 101.897 55.0281 101.897 57.9C101.897 60.7718 104.225 63.0999 107.097 63.0999Z" fill="#4285F4"/>
<path d="M132.497 36.7001C135.369 36.7001 137.697 34.3719 137.697 31.5C137.697 28.6282 135.369 26.3 132.497 26.3C129.625 26.3 127.297 28.6282 127.297 31.5C127.297 34.3719 129.625 36.7001 132.497 36.7001Z" fill="#4285F4"/>
<path d="M157.997 36.7001C160.869 36.7001 163.197 34.3719 163.197 31.5C163.197 28.6282 160.869 26.3 157.997 26.3C155.125 26.3 152.797 28.6282 152.797 31.5C152.797 34.3719 155.125 36.7001 157.997 36.7001Z" fill="#4285F4"/>
<path d="M132.497 63.0999C135.369 63.0999 137.697 60.7718 137.697 57.9C137.697 55.0281 135.369 52.7 132.497 52.7C129.625 52.7 127.297 55.0281 127.297 57.9C127.297 60.7718 129.625 63.0999 132.497 63.0999Z" fill="#4285F4"/>
</g>
<defs>
<clipPath id="clip0_3_2">
<rect width="163.2" height="63.1" fill="white" transform="translate(-0.00268555)"/>
</clipPath>
</defs>
</svg>
