<svg width="40" height="197" viewBox="0 0 40 197" fill="none" xmlns="http://www.w3.org/2000/svg">
<g clip-path="url(#clip0_4_647)">
<path d="M36.7273 2.95532H-10.7273V193.612H36.7273V2.95532Z" stroke="#2C2F3D" stroke-width="0.8593" stroke-miterlimit="10"/>
<path d="M36.7273 196.928C38.5347 196.928 40 195.443 40 193.612C40 191.781 38.5347 190.296 36.7273 190.296C34.9198 190.296 33.4545 191.781 33.4545 193.612C33.4545 195.443 34.9198 196.928 36.7273 196.928Z" fill="#2C2F3D"/>
<path d="M36.7273 6.63154C38.5347 6.63154 40 5.14702 40 3.31577C40 1.48452 38.5347 0 36.7273 0C34.9198 0 33.4545 1.48452 33.4545 3.31577C33.4545 5.14702 34.9198 6.63154 36.7273 6.63154Z" fill="#2C2F3D"/>
</g>
<defs>
<clipPath id="clip0_4_647">
<rect width="54" height="197" fill="white" transform="translate(-14)"/>
</clipPath>
</defs>
</svg>
