<svg width="119" height="64" viewBox="0 0 119 64" fill="none" xmlns="http://www.w3.org/2000/svg">
<g clip-path="url(#clip0_4_689)">
<path d="M11.1 10.4C13.9719 10.4 16.3 8.07188 16.3 5.2C16.3 2.32812 13.9719 0 11.1 0C8.22814 0 5.90002 2.32812 5.90002 5.2C5.90002 8.07188 8.22814 10.4 11.1 10.4Z" fill="#4285F4"/>
<path d="M36.6 10.4C39.4719 10.4 41.8 8.07188 41.8 5.2C41.8 2.32812 39.4719 0 36.6 0C33.7281 0 31.4 2.32812 31.4 5.2C31.4 8.07188 33.7281 10.4 36.6 10.4Z" fill="#4285F4"/>
<path d="M11.1 36.7C13.9719 36.7 16.3 34.3719 16.3 31.5C16.3 28.6281 13.9719 26.3 11.1 26.3C8.22814 26.3 5.90002 28.6281 5.90002 31.5C5.90002 34.3719 8.22814 36.7 11.1 36.7Z" fill="#4285F4"/>
<path d="M36.6 36.7C39.4719 36.7 41.8 34.3719 41.8 31.5C41.8 28.6281 39.4719 26.3 36.6 26.3C33.7281 26.3 31.4 28.6281 31.4 31.5C31.4 34.3719 33.7281 36.7 36.6 36.7Z" fill="#4285F4"/>
<path d="M62.1 36.7C64.9719 36.7 67.3 34.3719 67.3 31.5C67.3 28.6281 64.9719 26.3 62.1 26.3C59.2281 26.3 56.9 28.6281 56.9 31.5C56.9 34.3719 59.2281 36.7 62.1 36.7Z" fill="#4285F4"/>
<path d="M11.1 63.1C13.9719 63.1 16.3 60.7719 16.3 57.9C16.3 55.0281 13.9719 52.7 11.1 52.7C8.22814 52.7 5.90002 55.0281 5.90002 57.9C5.90002 60.7719 8.22814 63.1 11.1 63.1Z" fill="#4285F4"/>
<path d="M36.6 63.1C39.4719 63.1 41.8 60.7719 41.8 57.9C41.8 55.0281 39.4719 52.7 36.6 52.7C33.7281 52.7 31.4 55.0281 31.4 57.9C31.4 60.7719 33.7281 63.1 36.6 63.1Z" fill="#4285F4"/>
<path d="M62.1 63.1C64.9719 63.1 67.3 60.7719 67.3 57.9C67.3 55.0281 64.9719 52.7 62.1 52.7C59.2281 52.7 56.9 55.0281 56.9 57.9C56.9 60.7719 59.2281 63.1 62.1 63.1Z" fill="#4285F4"/>
<path d="M87.5 36.7C90.3719 36.7 92.7 34.3719 92.7 31.5C92.7 28.6281 90.3719 26.3 87.5 26.3C84.6281 26.3 82.3 28.6281 82.3 31.5C82.3 34.3719 84.6281 36.7 87.5 36.7Z" fill="#4285F4"/>
<path d="M113 36.7C115.872 36.7 118.2 34.3719 118.2 31.5C118.2 28.6281 115.872 26.3 113 26.3C110.128 26.3 107.8 28.6281 107.8 31.5C107.8 34.3719 110.128 36.7 113 36.7Z" fill="#4285F4"/>
<path d="M87.5 63.1C90.3719 63.1 92.7 60.7719 92.7 57.9C92.7 55.0281 90.3719 52.7 87.5 52.7C84.6281 52.7 82.3 55.0281 82.3 57.9C82.3 60.7719 84.6281 63.1 87.5 63.1Z" fill="#4285F4"/>
</g>
<defs>
<clipPath id="clip0_4_689">
<rect width="163.2" height="63.1" fill="white" transform="translate(-45)"/>
</clipPath>
</defs>
</svg>
